<?xml version="1.0" standalone="no"?>
<!DOCTYPE svg PUBLIC "-//W3C//DTD SVG 20010904//EN"
 "http://www.w3.org/TR/2001/REC-SVG-20010904/DTD/svg10.dtd">
<svg version="1.0" xmlns="http://www.w3.org/2000/svg"
 width="206.000000pt" height="265.000000pt" viewBox="0 0 206.000000 265.000000"
 preserveAspectRatio="xMidYMid meet">

<g transform="translate(0.000000,265.000000) scale(0.100000,-0.100000)"
fill="#4975E9" stroke="none">
<path d="M935 2632 c-16 -11 -228 -213 -470 -449 -479 -469 -465 -452 -465
-567 0 -82 19 -100 114 -104 l76 -4 0 -344 0 -344 206 -2 205 -3 48 -145 c41
-121 84 -243 116 -321 5 -14 -9 -17 -104 -22 -177 -10 -312 -45 -350 -91 -19
-23 -24 -87 -9 -116 19 -36 85 -68 170 -85 243 -46 882 -46 1125 0 126 24 168
58 168 135 0 51 -18 81 -65 105 -42 22 -174 45 -291 52 -95 5 -109 8 -104 22
32 78 75 200 116 321 l48 145 200 3 201 2 0 344 0 344 76 4 c96 4 114 21 114
107 0 108 7 99 -461 568 -239 239 -446 441 -461 449 -41 21 -165 19 -203 -4z
m464 -536 l354 -354 -41 -50 -42 -50 0 -311 0 -311 -154 0 -155 0 -29 -27
c-23 -22 -38 -57 -70 -163 -22 -74 -70 -214 -106 -310 l-64 -175 -52 0 -51 0
-60 159 c-32 88 -71 198 -86 245 -15 47 -31 88 -34 91 -4 3 -15 32 -24 65 -11
39 -28 70 -47 88 l-29 27 -155 0 -154 0 0 313 0 313 -45 46 -46 45 243 239
c396 389 483 474 488 474 3 0 164 -159 359 -354z"/>
<path d="M730 1495 l0 -135 135 0 135 0 0 135 0 135 -135 0 -135 0 0 -135z"/>
</g>
</svg>
