<?xml version="1.0" standalone="no"?>
<!DOCTYPE svg PUBLIC "-//W3C//DTD SVG 20010904//EN"
 "http://www.w3.org/TR/2001/REC-SVG-20010904/DTD/svg10.dtd">
<svg version="1.0" xmlns="http://www.w3.org/2000/svg"
 width="1274.000000pt" height="1274.000000pt" viewBox="0 0 1274.000000 1274.000000"
 preserveAspectRatio="xMidYMid meet">

<g transform="translate(0.000000,1274.000000) scale(0.100000,-0.100000)"
fill="#4975E9" stroke="none">
<path d="M3190 9545 l-3175 -3175 3178 -3178 3177 -3177 3177 3177 3178 3178
-3175 3175 c-1746 1746 -3177 3175 -3180 3175 -3 0 -1434 -1429 -3180 -3175z
m4245 715 l1060 -1060 -355 -355 -355 -355 -707 707 -708 708 -1767 -1768
-1768 -1767 708 -708 707 -707 -355 -355 -355 -355 -1063 1063 -1062 1062
2475 2475 c1361 1361 2477 2475 2480 2475 3 0 482 -477 1065 -1060z m0 -2830
l1060 -1060 -1063 -1063 -1062 -1062 -1062 1062 -1063 1063 1060 1060 c583
583 1062 1060 1065 1060 3 0 482 -477 1065 -1060z m2830 0 l1060 -1060 -2478
-2478 -2477 -2477 -1062 1062 -1063 1063 355 355 355 355 707 -707 708 -708
1767 1768 1768 1767 -708 708 -707 707 352 353 c194 193 355 352 358 352 3 0
482 -477 1065 -1060z"/>
</g>
</svg>
