<?xml version="1.0" encoding="UTF-8"?>
<!DOCTYPE svg PUBLIC "-//W3C//DTD SVG 1.1//EN" "http://www.w3.org/Graphics/SVG/1.1/DTD/svg11.dtd">
<svg xmlns="http://www.w3.org/2000/svg" version="1.1" width="580px" height="510px" style="shape-rendering:geometricPrecision; text-rendering:geometricPrecision; image-rendering:optimizeQuality; fill-rule:evenodd; clip-rule:evenodd" xmlns:xlink="http://www.w3.org/1999/xlink">
<g><path style="opacity:1" fill="#8e04fe" d="M 316.5,-0.5 C 319.833,-0.5 323.167,-0.5 326.5,-0.5C 350.692,0.931529 372.692,8.5982 392.5,22.5C 416.877,66.6636 417.71,111.33 395,156.5C 390.914,163.007 386.58,169.34 382,175.5C 376.633,181.366 371.133,187.033 365.5,192.5C 361.075,172.83 361.575,153.164 367,133.5C 367.804,130.854 369.304,128.854 371.5,127.5C 377.396,125.885 382.729,123.219 387.5,119.5C 393.048,114.948 397.048,109.281 399.5,102.5C 406.094,74.5056 395.76,56.3389 368.5,48C 345.352,46.3205 330.185,56.4871 323,78.5C 319.592,101.356 328.425,117.356 349.5,126.5C 349.804,127.15 350.137,127.817 350.5,128.5C 342.927,153.388 342.593,178.388 349.5,203.5C 317.774,221.96 284.107,226.46 248.5,217C 235.774,213.636 224.107,208.136 213.5,200.5C 211.14,196.437 208.807,192.437 206.5,188.5C 183.686,136.968 189.519,88.968 224,44.5C 248.688,16.7389 279.521,1.73885 316.5,-0.5 Z M 399.5,102.5 C 383.235,97.3567 369.402,101.023 358,113.5C 355.116,117.973 352.282,122.306 349.5,126.5C 328.425,117.356 319.592,101.356 323,78.5C 330.185,56.4871 345.352,46.3205 368.5,48C 395.76,56.3389 406.094,74.5056 399.5,102.5 Z M 387.5,119.5 C 382.729,123.219 377.396,125.885 371.5,127.5C 371.839,124.256 373.839,121.756 377.5,120C 380.926,118.424 384.26,118.258 387.5,119.5 Z"/></g>
<g><path style="opacity:1" fill="#7005cb" d="M 392.5,22.5 C 429.164,48.6473 448.164,84.4806 449.5,130C 448.809,136.509 448.143,143.009 447.5,149.5C 445.562,158.49 443.229,167.49 440.5,176.5C 428.973,205.687 409.639,228.02 382.5,243.5C 377.963,236.091 374.463,228.091 372,219.5C 368.75,210.747 366.583,201.747 365.5,192.5C 371.133,187.033 376.633,181.366 382,175.5C 386.58,169.34 390.914,163.007 395,156.5C 417.71,111.33 416.877,66.6636 392.5,22.5 Z"/></g>
<g><path style="opacity:1" fill="#5aa3ee" d="M 447.5,149.5 C 452.573,159.985 457.406,170.652 462,181.5C 474.311,211.697 479.144,243.03 476.5,275.5C 470.5,270.167 464.833,264.5 459.5,258.5C 459.757,229.536 453.424,202.202 440.5,176.5C 443.229,167.49 445.562,158.49 447.5,149.5 Z"/></g>
<g><path style="opacity:1" fill="#7002cb" d="M 206.5,188.5 C 208.807,192.437 211.14,196.437 213.5,200.5C 224.107,208.136 235.774,213.636 248.5,217C 284.107,226.46 317.774,221.96 349.5,203.5C 352.938,219.98 358.271,235.813 365.5,251C 364.584,251.278 363.918,251.778 363.5,252.5C 328.555,263.771 294.555,261.438 261.5,245.5C 248.319,237.321 236.319,227.654 225.5,216.5C 222.146,214.137 219.48,211.137 217.5,207.5C 216.635,206.417 215.635,206.251 214.5,207C 143.472,278.361 72.8049,350.028 2.5,422C 1.42317,422.47 0.423175,422.303 -0.5,421.5C -0.5,420.833 -0.5,420.167 -0.5,419.5C 0.0661825,411.908 0.899516,404.241 2,396.5C 70.7309,327.603 138.898,258.27 206.5,188.5 Z"/></g>
<g><path style="opacity:0.997" fill="#8f01fd" d="M 225.5,216.5 C 225.649,217.552 225.483,218.552 225,219.5C 150.327,296.006 75.1605,372.006 -0.5,447.5C -0.5,438.833 -0.5,430.167 -0.5,421.5C 0.423175,422.303 1.42317,422.47 2.5,422C 72.8049,350.028 143.472,278.361 214.5,207C 215.635,206.251 216.635,206.417 217.5,207.5C 219.48,211.137 222.146,214.137 225.5,216.5 Z"/></g>
<g><path style="opacity:0.982" fill="#5a01a7" d="M 225.5,216.5 C 236.319,227.654 248.319,237.321 261.5,245.5C 228.316,280.942 194.316,315.775 159.5,350C 148.323,352.969 136.99,355.302 125.5,357C 123.152,357.346 121.319,358.513 120,360.5C 117.681,370.743 115.681,381.077 114,391.5C 113.64,393.421 112.806,395.088 111.5,396.5C 101.337,399.306 91.004,401.473 80.5,403C 75.7583,404.284 73.2583,407.451 73,412.5C 71.4412,422.186 69.7746,431.853 68,441.5C 65.2523,446.252 61.7523,450.419 57.5,454C 41.2083,455.151 24.875,455.985 8.5,456.5C 4.45804,456.437 1.45804,454.771 -0.5,451.5C -0.5,450.167 -0.5,448.833 -0.5,447.5C 75.1605,372.006 150.327,296.006 225,219.5C 225.483,218.552 225.649,217.552 225.5,216.5 Z"/></g>
<g><path style="opacity:1" fill="#5ba0eb" d="M 399.5,102.5 C 397.048,109.281 393.048,114.948 387.5,119.5C 384.26,118.258 380.926,118.424 377.5,120C 373.839,121.756 371.839,124.256 371.5,127.5C 369.304,128.854 367.804,130.854 367,133.5C 361.575,153.164 361.075,172.83 365.5,192.5C 366.583,201.747 368.75,210.747 372,219.5C 374.463,228.091 377.963,236.091 382.5,243.5C 389.329,260.653 399.329,275.653 412.5,288.5C 418.897,294.866 426.564,298.866 435.5,300.5C 442.454,301.691 447.788,299.024 451.5,292.5C 450.675,291.614 449.675,291.281 448.5,291.5C 452.439,290.476 456.439,290.809 460.5,292.5C 463.139,294.473 465.473,296.806 467.5,299.5C 467.5,300.167 467.5,300.833 467.5,301.5C 460.034,312.922 449.367,318.922 435.5,319.5C 430.772,318.651 426.105,317.485 421.5,316C 413.398,311.707 405.731,306.873 398.5,301.5C 398.262,299.596 397.262,298.262 395.5,297.5C 395.5,297.167 395.5,296.833 395.5,296.5C 395.5,295.833 395.167,295.5 394.5,295.5C 389.15,289.478 384.15,283.145 379.5,276.5C 374.925,269.023 370.592,261.356 366.5,253.5C 365.675,252.614 364.675,252.281 363.5,252.5C 363.918,251.778 364.584,251.278 365.5,251C 358.271,235.813 352.938,219.98 349.5,203.5C 342.593,178.388 342.927,153.388 350.5,128.5C 350.137,127.817 349.804,127.15 349.5,126.5C 352.282,122.306 355.116,117.973 358,113.5C 369.402,101.023 383.235,97.3567 399.5,102.5 Z M 448.5,291.5 C 449.675,291.281 450.675,291.614 451.5,292.5C 447.788,299.024 442.454,301.691 435.5,300.5C 438.225,295.295 442.558,292.295 448.5,291.5 Z"/></g>
<g><path style="opacity:1" fill="#7201cb" d="M 459.5,258.5 C 464.833,264.5 470.5,270.167 476.5,275.5C 506.329,303.828 536.329,331.995 566.5,360C 571.44,364.432 575.773,369.265 579.5,374.5C 579.5,377.167 579.5,379.833 579.5,382.5C 577.091,386.761 574.424,390.927 571.5,395C 565.833,399.667 560.167,399.667 554.5,395C 550.667,391.167 546.833,387.333 543,383.5C 542.667,424.167 542.333,464.833 542,505.5C 541.31,507.35 540.144,508.684 538.5,509.5C 522.5,509.5 506.5,509.5 490.5,509.5C 490.667,446.499 490.5,383.499 490,320.5C 482.932,312.928 475.432,305.928 467.5,299.5C 465.473,296.806 463.139,294.473 460.5,292.5C 451.86,284.194 443.193,275.861 434.5,267.5C 438.045,262.789 442.379,258.955 447.5,256C 451.981,254.888 455.981,255.721 459.5,258.5 Z"/></g>
<g><path style="opacity:1" fill="#9306fc" d="M 434.5,267.5 C 443.193,275.861 451.86,284.194 460.5,292.5C 456.439,290.809 452.439,290.476 448.5,291.5C 442.558,292.295 438.225,295.295 435.5,300.5C 426.564,298.866 418.897,294.866 412.5,288.5C 419.201,280.798 426.534,273.798 434.5,267.5 Z"/></g>
<g><path style="opacity:1" fill="#8f02fd" d="M 379.5,276.5 C 384.15,283.145 389.15,289.478 394.5,295.5C 394.5,295.833 394.5,296.167 394.5,296.5C 394.187,299.247 394.52,301.914 395.5,304.5C 396.107,304.376 396.44,304.043 396.5,303.5C 396.833,302.5 397.5,301.833 398.5,301.5C 405.731,306.873 413.398,311.707 421.5,316C 426.105,317.485 430.772,318.651 435.5,319.5C 444.3,330.274 454.133,331.274 465,322.5C 469.79,315.925 470.623,308.925 467.5,301.5C 467.5,300.833 467.5,300.167 467.5,299.5C 475.432,305.928 482.932,312.928 490,320.5C 490.5,383.499 490.667,446.499 490.5,509.5C 488.167,509.5 485.833,509.5 483.5,509.5C 483.667,476.832 483.5,444.165 483,411.5C 481.52,408.337 479.02,406.504 475.5,406C 461.5,405.333 447.5,405.333 433.5,406C 428.667,406.833 425.833,409.667 425,414.5C 424.5,446.165 424.333,477.832 424.5,509.5C 404.5,509.5 384.5,509.5 364.5,509.5C 363.312,508.636 362.145,507.636 361,506.5C 360.833,465.496 360.333,424.496 359.5,383.5C 355.015,387.485 350.682,391.651 346.5,396C 339.833,399.378 334,398.211 329,392.5C 326.024,388.214 323.857,383.547 322.5,378.5C 323.18,376.111 324.014,373.778 325,371.5C 336.971,360.53 348.638,349.196 360,337.5C 360.025,318.41 360.691,299.41 362,280.5C 363.214,278.951 364.714,277.785 366.5,277C 370.821,276.501 375.154,276.334 379.5,276.5 Z M 467.5,301.5 C 470.623,308.925 469.79,315.925 465,322.5C 454.133,331.274 444.3,330.274 435.5,319.5C 449.367,318.922 460.034,312.922 467.5,301.5 Z"/></g>
<g><path style="opacity:1" fill="#ff9895" d="M 394.5,296.5 C 394.833,296.5 395.167,296.5 395.5,296.5C 395.5,296.833 395.5,297.167 395.5,297.5C 395.205,299.735 395.539,301.735 396.5,303.5C 396.44,304.043 396.107,304.376 395.5,304.5C 394.52,301.914 394.187,299.247 394.5,296.5 Z"/></g>
</svg>
